<?xml version="1.0" encoding="utf-8"?>
<!-- Generator: Adobe Illustrator 16.0.0, SVG Export Plug-In . SVG Version: 6.00 Build 0)  -->
<!DOCTYPE svg PUBLIC "-//W3C//DTD SVG 1.1//EN" "http://www.w3.org/Graphics/SVG/1.1/DTD/svg11.dtd">
<svg version="1.1" id="Layer_1" xmlns="http://www.w3.org/2000/svg" xmlns:xlink="http://www.w3.org/1999/xlink" x="0px" y="0px"
	 width="633.671px" height="119.879px" viewBox="0 0 633.671 119.879" enable-background="new 0 0 633.671 119.879"
	 xml:space="preserve">
<g>
	<path fill-rule="evenodd" clip-rule="evenodd" fill="#FFFFFF" d="M48.278,8.075c1.085,0.342,2.169,0.684,3.484,1.098
		c-5.745,0.758-8.648,1.824-8.832,3.271c-7.555-1.926-14.67,1.965-21.86,1.537c-0.454-0.401-0.801-0.976-1.16-0.983
		c-3.299-0.07-6.599-0.041-10.161-0.041c-1.01,2.423-0.126,4.874,1.356,7.26c0.247,0.399,0.381,0.915,0.421,1.389
		c0.123,1.474,0.712,3.23,0.125,4.36c-0.78,1.503-0.531,2.723-0.455,4.191c0.374,7.18,0.577,14.369,0.857,21.555
		c0.027,0.718,0.167,1.432,0.255,2.146c0.163,0.021,0.327,0.044,0.49,0.065c0.361-0.639,0.723-1.278,1.084-1.917
		c0.088,0.021,0.176,0.044,0.264,0.065c-0.781,2.926-2.099,5.836-2.19,8.784c-0.091,2.918,1.056,5.876,1.686,8.943
		c-0.579,0-1.052,0-1.599,0c0,2.432,0.355,4.886-0.077,7.192c-0.798,4.25-0.295,8.523-0.558,12.771
		c-0.25,4.026,0.863,8.129,1.292,12.207c0.131,1.252,0.821,2.76-0.833,3.586c-0.306-1.892-0.604-3.737-0.914-5.661
		c-0.376,0.159-0.564,0.202-0.564,0.244c0.029,2.46-0.076,4.938,0.192,7.372c0.104,0.938,1.041,1.582,2.354,1.522
		c3.062-0.137,6.14-0.146,9.202-0.013c2.741,0.119,5.482,0.79,8.202,0.681c2.482-0.101,4.952-0.854,7.397-1.446
		c1.807-0.438,3.451-1.23,5.423-0.176c0.9,0.481,2.331,0.096,3.496-0.071c1.794-0.258,3.555-0.771,5.352-0.977
		c1.442-0.165,2.921-0.087,4.379-0.022c3.282,0.142,6.562,0.343,9.843,0.52c-0.005,0.206-0.01,0.411-0.015,0.617
		c-1.048,0-2.096,0-3.144,0c1.918,1.347,4.06,0.764,6.094,0.804c2.229,0.044,4.477-0.115,6.689-0.396
		c2.118-0.268,4.202-0.805,6.467-1.257c0.116,1.9,1.303,2.215,2.821,2.098c2.677-0.206,5.355-0.369,8.033-0.551
		c0.02-0.223,0.039-0.446,0.058-0.669c-0.686-0.418-1.372-0.837-2.059-1.255c0.021-0.119,0.043-0.239,0.064-0.358
		c0.89,0.118,1.803,0.147,2.665,0.371c2.434,0.63,4.728,1.267,7.419,0.992c4.6-0.47,9.283-0.174,13.931-0.111
		c2.499,0.032,5.009,0.476,7.491,0.336c7.141-0.403,14.266-1.098,21.408-1.481c2.04-0.109,4.181,0.215,6.163,0.755
		c3.637,0.989,7.205,0.47,10.862,0.038c-0.536,0.563-1.045,1.098-1.96,2.059c1.811-0.167,3.087-0.384,4.359-0.363
		c0.74,0.012,1.475,0.585,2.212,0.586c1.434,0,2.882-0.14,4.298-0.375c2.684-0.446,5.329-1.223,8.025-1.453
		c3.012-0.257,6.062-0.059,9.145,0.226c-2.456,1.356-5.636-0.709-8.011,1.533c2.827,0.312,5.538,0.726,8.263,0.869
		c1.726,0.091,3.504-0.026,4.755-1.666c0.247-0.323,1.086-0.262,1.652-0.266c3.065-0.022,6.137-0.122,9.194,0.031
		c2.058,0.104,4.097,0.581,6.277,0.913c-0.759,0.322-1.429,0.606-2.098,0.891c2.2,0.5,4.335,0.909,6.43-0.126
		c2.808-1.388,5.607-2.206,8.585-0.284c0.555,0.358,1.586,0.218,2.317,0.019c2.716-0.741,5.393-1.599,8.247-0.688
		c0.307,0.098,0.699-0.076,1.15-0.553c-0.658-0.286-1.316-0.572-1.975-0.857c0.014-0.158,0.026-0.316,0.039-0.475
		c2.943,0.264,5.889,0.505,8.828,0.796c2.151,0.213,4.18,0.731,6.421-0.331c1.19-0.564,3.172-0.067,4.564,0.511
		c4.523,1.877,9.2,1.929,14.047,1.641c-0.712-1.434-0.289-2.078,1.354-1.914c2.278,0.228,4.563,0.382,6.854,0.567
		c-0.291,0.2-0.614,0.422-0.937,0.645c0.02,0.134,0.039,0.267,0.059,0.4c1.717-0.222,3.434-0.442,5.266-0.679
		c-0.055,0.317-0.105,0.614-0.125,0.732c3.571-0.208,7.219-0.42,10.867-0.632c0.034,0.131,0.068,0.261,0.103,0.391
		c-0.351,0.187-0.689,0.402-1.057,0.55c-0.389,0.156-0.804,0.246-1.207,0.364c0.018,0.174,0.035,0.348,0.053,0.521
		c2.313,0,4.627,0,7.405,0c-1.708,0.4-2.973,0.697-4.236,0.993c6.334,0.861,12.499,0.404,18.55-1.492
		c-2.441,0.167-4.883,0.335-7.419,0.509c0.116-0.324,0.148-0.536,0.2-0.541c2.797-0.263,5.592-0.546,8.394-0.742
		c2.036-0.142,4.081-0.253,6.12-0.224c2.95,0.044,5.946-0.069,8.833,0.417c4.468,0.753,8.816,2.374,13.298,2.834
		c3.517,0.361,7.158-0.47,10.741-0.806c0.168-0.016,0.303-0.379,0.636-0.827c-3.622-0.223-7.021-0.433-10.418-0.642
		c-0.036-0.224-0.072-0.447-0.109-0.67c0.541-0.077,1.094-0.265,1.619-0.207c0.896,0.1,1.779,0.524,2.663,0.513
		c5.831-0.079,11.659-0.269,17.49-0.359c3.788-0.06,3.771,0.012,6.19,1.992c0.476,0.39,1.175,0.781,1.737,0.736
		c1.611-0.128,3.217-0.421,4.801-0.76c1.37-0.294,2.583-0.513,4.071-0.007c1.084,0.368,2.562-0.441,3.87-0.705
		c2.798-0.562,5.579-1.314,8.406-1.585c1.549-0.147,3.165,0.662,4.771,0.8c2.769,0.237,5.551,0.339,8.33,0.4
		c2.184,0.047,4.372-0.115,6.557-0.073c4.756,0.091,9.512,0.354,14.266,0.328c1.588-0.009,3.169-0.69,4.759-1.04
		c0.382-0.084,0.786-0.089,1.181-0.095c8.208-0.138,16.417-0.267,24.625-0.402c7.81-0.13,15.669,0.203,23.409-0.598
		c3.832-0.396,7.608-0.251,11.44-0.345c-0.471,0.084-0.941,0.168-1.732,0.308c2.296,1.522,4.539,1.611,6.886,1.282
		c0.685-0.096,1.4,0.051,2.094-0.011c1.056-0.093,2.49,1.076,3.062-0.9c0.051-0.174,1.012-0.236,1.488-0.112
		c7.544,1.957,15.236,0.901,22.86,1.187c0.635,0.023,1.263,0.229,1.733,0.318c0.729-2.018,2.226,0.112,3.117-0.481
		c-0.44,0.088-0.88,0.177-1.604,0.321c2.43,0.372,4.519,0.692,6.606,1.012c0.082-0.125,0.164-0.25,0.246-0.375
		c-0.688-0.519-1.377-1.037-2.376-1.79c6.115,0.208,11.712,0.366,17.306,0.596c5.462,0.225,10.92,0.551,16.382,0.774
		c4.421,0.182,8.848,0.424,13.269,0.364c3.987-0.053,7.981,0.082,11.971-0.659c2.003-0.372,4.182,0.168,6.277,0.339
		c4.437,0.361,8.871,0.753,13.307,1.124c0.236,0.021,0.528-0.131,0.712-0.038c2.712,1.364,5.411,2.754,8.108,4.147
		c0.232,0.119,0.431,0.305,1.177,0.844c-1.432,0.457-2.339,0.919-3.282,1.016c-3.327,0.342-6.668,0.777-10.001,0.761
		c-3.397-0.018-6.8-0.456-10.183-0.851c-1.622-0.188-2.887-0.605-4.43,0.926c-0.98,0.973-3.333,0.77-5.062,0.73
		c-2.143-0.049-4.271-0.577-6.418-0.713c-3.488-0.221-6.985-0.338-10.479-0.415c-7.544-0.165-15.089-0.4-22.633-0.381
		c-13.455,0.035-26.908,0.281-40.363,0.345c-3.956,0.019-7.917-0.45-11.869-0.373c-2.268,0.044-4.511,0.84-6.787,1.103
		c-1.639,0.188-3.341,0.244-4.966,0.015c-1.911-0.27-3.756-0.992-5.66-1.346c-0.598-0.111-1.756,0.187-1.871,0.55
		c-0.508,1.58-1.699,1.286-2.787,1.264c-5.354-0.111-10.707-0.241-16.059-0.395c-3.693-0.106-7.386-0.323-11.08-0.377
		c-4.596-0.066-9.193,0.032-13.789-0.063c-0.752-0.015-1.535-0.593-2.226-1.032c-0.729-0.466-1.269-1.115-1.907,0.188
		c-0.182,0.372-1.181,0.431-1.816,0.479c-3.793,0.288-7.588,0.673-11.387,0.734c-2.264,0.036-4.535-0.471-6.804-0.718
		c-2.532-0.274-5.079-0.457-7.593-0.844c-0.727-0.112-1.322-1.014-2.056-1.159c-1.368-0.271-2.797-0.345-4.191-0.291
		c-0.339,0.014-0.646,0.842-1.111,1.496c-3.057,0-6.446-0.096-9.825,0.032c-2.478,0.094-4.939,0.569-7.417,0.702
		c-1.425,0.076-2.869-0.296-4.303-0.281c-3.696,0.038-7.391,0.197-11.087,0.271c-2.719,0.054-5.44,0.104-8.158,0.05
		c-2.367-0.047-4.732-0.214-7.095-0.382c-3.198-0.229-6.395-0.715-9.589-0.695c-2.217,0.014-4.43,0.693-6.888,1.118
		c0.776,0.361,1.416,0.658,2.517,1.17c-3.929,0-7.54,0.615-10.805-0.186c-2.869-0.703-5.634-1.006-8.506-0.983
		c-0.9,0.008-1.8,0.235-2.698,0.365c-1.146,0.164-2.136,0.48-3.386-0.309c-2.143-1.354-4.438-0.07-6.628,0.424
		c-0.919,0.208-1.799,0.918-2.194-0.603c-0.033-0.126-0.317-0.264-0.486-0.264c-2.863-0.017-5.727-0.012-8.651-0.012
		c0.444,0.396,0.976,0.869,1.97,1.757c-3.956-0.202-7.403-0.393-10.852-0.546c-1.26-0.057-2.522-0.019-3.784-0.036
		c-9.138-0.131-18.276-0.263-27.414-0.398c-8.872-0.131-17.747-0.181-26.616-0.441c-3.242-0.096-6.466-0.737-9.706-1.047
		c-1.445-0.139-2.915-0.023-4.367-0.122c-0.981-0.067-1.951-0.306-2.87-0.732c1.007-0.079,2.015-0.156,3.021-0.234
		c-3.664-2.03-8.15-1.953-10.868,0.904c1.224,0.057,2.221,0.103,3.218,0.149c0.006,0.058,0.012,0.115,0.017,0.173
		c-1.075,0.147-2.172,0.208-3.225,0.455c-6.98,1.644-14.009,2.573-21.217,2.125c-6.779-0.422-13.573-0.619-20.363-0.811
		c-3.993-0.111-7.995,0.073-11.989-0.04c-6.724-0.19-13.444-0.512-20.166-0.778c-0.198-0.008-0.471,0.061-0.584-0.043
		c-2.744-2.485-5.577-0.096-8.357-0.128c-4.913-0.057-9.83,0.229-14.742,0.167c-3.001-0.037-5.891-0.518-9.001,0.135
		c-3.517,0.738-7.289,0.275-10.951,0.294c-3.651,0.018-7.306,0.044-10.954-0.059c-1.121-0.032-2.218-0.593-3.347-0.707
		c-2.149-0.218-4.318-0.442-6.471-0.377c-2.345,0.07-4.675,0.6-7.021,0.688c-3.329,0.126-6.666,0.032-9.999,0.032
		c-0.133,0-0.279,0.037-0.396-0.006c-5.29-1.932-10.474,0.289-15.709,0.394c-2.266,0.046-4.533-0.031-6.799,0.021
		c-4.422,0.102-8.842,0.289-13.265,0.363c-1.074,0.019-2.153-0.265-3.346-0.424c0.262-3.26,0.604-6.315,0.717-9.379
		c0.072-1.95,0.53-4.483-0.466-5.746c-1.836-2.33-0.717-4.615-0.982-6.87c-0.562-4.749-0.911-9.524-1.274-14.295
		c-0.106-1.395-0.12-2.838,0.137-4.2c0.096-0.508,1.086-0.847,1.839-1.386c-0.16-1.315,0.731-3.116-1.614-4.097
		c-0.515-0.215-0.307-2.159-0.144-3.391c0.109,0.171,0.219,0.34,0.483,0.752c0.62-5.571,4.102-10.251,3.673-16.426
		C4.133,54.215,4.016,54.5,3.9,54.786c-0.147-0.03-0.296-0.06-0.443-0.089c0.409-3.68,0.818-7.36,1.227-11.041
		c0.201-1.817,0.484-3.633,0.571-5.456c0.055-1.148-0.312-2.187-1.872-1.909c0.234-5.796,0.526-11.576,0.684-17.361
		c0.105-3.885,0.021-7.775,0.021-11.363C9.597,4.823,14.95,6.022,20.16,5.814c8.309-0.33,16.622-0.55,24.934-0.812
		C45.746,4.982,46.398,5,47.208,5c-0.387,0.321-0.639,0.53-0.89,0.738c0.016,0.167,0.031,0.333,0.047,0.499
		c1.276,0,2.554,0.009,3.83-0.002c2.53-0.02,5.062-0.018,7.59-0.099c0.67-0.021,1.704-0.104,1.937-0.517
		c1.362-2.416,3.683-2.687,6.026-3.015c0.637-0.089,1.267-0.225,1.904-0.339c0.615,2.103,2.151,0.682,2.82,0.696
		c0.466,0.604,0.717,1.187,0.934,1.174c3.529-0.198,7.051-0.553,10.582-0.703c2.53-0.108,5.071,0.031,7.608,0.064
		c0.124,0.001,0.33,0,0.36,0.063c0.937,2.012,2.602,1.042,4.068,1.065c1.967,0.032,3.931,0.249,5.896,0.372
		c0.865,0.054,1.915,0.781,2.41-0.665c0.046-0.134,0.615-0.128,0.939-0.12c10.769,0.257,21.537,0.52,32.305,0.788
		c5.088,0.126,10.178,0.2,15.261,0.423c2.941,0.129,5.868,0.588,8.81,0.735c1.424,0.071,2.911-0.52,4.294-0.312
		c5.239,0.79,10.251-0.825,15.373-1.198c0.375-0.027,0.928-0.048,1.115,0.171c2.158,2.513,4.776,1.832,7.397,1.135
		c1.002-0.266,1.979-0.623,2.981-0.885c0.374-0.098,0.954-0.22,1.159-0.029c2.129,1.982,4.629,0.275,6.89,0.759
		c3.899,0.835,7.543-1.117,11.302-1.075c3.807,0.043,7.511-1.319,11.43-0.233c2.881,0.799,6.041-0.708,9.103,0.423
		c0.95,0.351,2.263-0.281,3.591-0.492c-0.341-0.438-0.637-0.818-0.932-1.198c0.096-0.173,0.192-0.346,0.288-0.519
		c1.013,0.397,2.021,0.806,3.04,1.188c0.355,0.133,0.737,0.295,1.104,0.287c5.091-0.109,10.181-0.321,15.271-0.348
		c3.228-0.017,6.464,0.445,9.683,0.319c6.17-0.241,12.33-0.749,18.494-1.141c0.397-0.025,0.868-0.141,1.185,0.021
		c3.156,1.607,6.601,0.62,9.887,1.101c3.114,0.456,6.325,0.21,9.472,0.505c2.904,0.272,5.57-0.408,8.227-1.383
		c0.362-0.134,0.76-0.223,1.145-0.237c3.892-0.147,7.785-0.259,11.676-0.419c1.166-0.048,2.551,0.509,3.288-1.021
		c0.055-0.112,0.36-0.121,0.553-0.146c0.197-0.026,0.398-0.013,0.598-0.018c5.353-0.133,10.71-0.458,16.058-0.339
		c4.373,0.098,8.729,0.793,13.102,1.089c2.38,0.16,4.781-0.012,7.17,0.059c3.768,0.109,7.483-0.01,11.269,1.012
		c2.972,0.801,6.332,0.166,9.519,0.169c2.537,0.002,5.076-0.047,7.612,0.018c3.096,0.078,6.19,0.375,9.284,0.355
		c5.354-0.033,10.706-0.254,16.06-0.364c2.204-0.045,4.418,0.11,6.615-0.031c4.805-0.311,9.595-0.903,14.401-1.09
		c3.686-0.143,7.387,0.147,11.08,0.273c1.38,0.048,2.756,0.212,4.135,0.259c2.625,0.089,4.849,1.341,7.147,2.384
		c0.061,0.028,0.137,0.104,0.173,0.087c2.276-1.067,4.521,0.258,6.779,0.084c3.004-0.23,6.006-0.489,9.004-0.789
		c1.264-0.127,2.516-0.389,4.267-0.668c-0.958-0.492-1.43-0.734-2.054-1.055c0.257-0.122,0.389-0.232,0.53-0.244
		c5.103-0.443,10.091,0.681,15.132,1.033c4.348,0.304,8.766-0.422,13.154-0.659c1.188-0.064,2.382-0.01,3.562,0.218
		c-5.2,0.688-10.4,1.376-15.6,2.064c-0.002,0.132-0.004,0.264-0.006,0.396c1.24,0.344,2.482,0.688,3.723,1.032
		c-0.016,0.09-0.031,0.179-0.046,0.269c-2.059,0-4.118,0.004-6.177-0.005c-0.26-0.001-0.694,0.016-0.756-0.114
		c-1.098-2.319-3.206-1.471-4.896-1.423c-4.333,0.121-8.679,0.328-12.98,0.827c-1.943,0.226-3.797,1.227-5.68,2.25
		c1.528,0,3.056,0,4.583,0c0.019,0.225,0.036,0.449,0.055,0.674c-2.151,0.192-4.3,0.52-6.452,0.541
		c-2.43,0.024-4.86-0.303-7.293-0.34c-4.05-0.063-8.103,0.052-12.151-0.037c-3.953-0.087-7.902-0.334-11.858-0.763
		c3.566,0,7.137-0.099,10.696,0.051c1.343,0.057,2.007-0.545,2.713-1.433c0.688-0.866,0.495-1.464-0.476-1.823
		c-0.844-0.313-1.714-0.727-2.586-0.76c-4.605-0.176-9.146,0.101-13.704,1.102c-3.74,0.821-7.715,1.438-11.461,1.023
		c-2.005-0.221-4.131-1.164-6.25-0.922c-5.996,0.684-12.115,0.876-17.702,3.569c-0.796,0.384-1.423,1.119-2.014,1.6
		c-1.883-0.392-3.872-1.083-5.891-1.175c-6.076-0.275-12.165-0.295-18.247-0.461c-2.632-0.071-5.262-0.256-7.892-0.389
		c-0.199-0.01-0.486,0.067-0.584-0.036c-2.165-2.309-4.616-0.643-6.777-0.224c-2.201,0.428-4.154,2.02-6.348,2.647
		c-1.713,0.489-3.728,0.707-5.427,0.294c-2.951-0.718-5.545,0.103-8.254,0.864c-1.486,0.417-2.989,1.13-4.46-0.487
		c-0.405-0.445-1.94,0.091-2.944,0.255c-0.457,0.074-0.883,0.34-1.322,0.519c-0.104-0.165-0.207-0.329-0.311-0.493
		c1.403-0.955,2.807-1.909,4.375-2.975c-1.453-1.833-3.519-1.509-5.209-1.893c-3.23-0.735-6.538-1.134-9.818-1.643
		c-2.674-0.414-4.198,1.248-3.353,3.912c0.574,1.81,1.6,3.477,2.33,5.012c-1.735-0.372-4.039-1.039-6.389-1.323
		c-2.534-0.306-5.124-0.454-7.667-0.302c-2.444,0.146-4.859,0.768-7.358,0.907c0.678-0.236,1.354-0.473,2.032-0.71
		c-0.028-0.145-0.057-0.29-0.086-0.435c-3.04,0.167-6.08,0.335-9.218,0.508c0.681-0.87,1.244-1.59,1.884-2.406
		c-6.101-1.604-19.49,0.827-21.416,3.96c5.163-0.536,10.164-1.056,15.165-1.575c0.002,0.045,0.004,0.089,0.005,0.133
		c-3.472,0.797-6.908,1.915-10.426,2.304c-3.621,0.399-7.32,0.088-10.989-0.229c0.884-0.187,1.768-0.372,2.651-0.559
		c-0.008-0.197-0.017-0.395-0.024-0.592c-2.359-0.213-4.719-0.425-7.109-0.641c8.119-2.569,16.164-5.116,24.208-7.663
		c-0.044-0.216-0.089-0.432-0.134-0.647c-1.642,0.175-3.284,0.353-4.928,0.523c-0.714,0.073-1.572,0.419-2.121,0.147
		c-2.622-1.298-5.098-0.217-7.556,0.362c-5.403,1.273-10.441,3.499-15.36,6.068c-0.975,0.509-2.565,0.259-3.689-0.147
		c-0.444-0.16-0.39-1.701-0.636-3.002c-2.561-0.448-5.625,0.361-8.532,1.267c-3.914,1.22-7.742,2.598-11.937,2.524
		c0.256,0.102,0.514,0.203,0.771,0.309c-0.071,0.078-0.142,0.22-0.213,0.22c-2.723,0.018-5.445-0.012-8.166,0.04
		c-1.897,0.036-3.053-0.891-3.74-2.638c-2.658,0.682-5.326,1.366-8.024,2.059c0-0.826,0-1.604,0-2.4
		c-2.302-0.462-4.757,0.591-5.54,2.511c-3.958-0.802-7.932-1.606-11.905-2.41c-0.132,0.154-0.264,0.309-0.396,0.463
		c0.559,0.753,1.118,1.507,1.715,2.311c-2.459,0-4.943,0-8.15,0c5.651-1.009,2.497-4.189,2.396-6.875
		c-5.792,2.079-11.543,4.143-17.643,6.332c0.411-0.869,0.688-1.453,1.021-2.159c-6.364,1.605-12.775,1.619-19.193,1.624
		c-2.1,0.001-4.205,0.415-6.296,0.334c-2.914-0.114-5.818-0.509-8.725-0.799c-0.905-0.091-1.808-0.357-2.706-0.334
		c-3.681,0.098-7.419-0.894-11.044,0.665c-0.48,0.206-1.336-0.676-2-0.646c-4.397,0.197-8.845,0.185-13.16,0.92
		c-1.992,0.339-3.882,1.679-5.931,0.64c-2.236-1.134-4.4-0.347-6.601-0.16c-2.023,0.172-4.042,0.397-6.067,0.529
		c-0.465,0.03-0.949-0.226-1.382-0.679c5.27-0.311,10.538-0.621,15.922-0.938c-0.201-0.442-0.482-1.059-0.787-1.729
		c0.383-0.312,0.771-0.629,1.216-0.992c-0.2-0.168-0.35-0.392-0.464-0.375c-6.898,0.965-13.804,1.886-20.684,2.963
		c-3.074,0.481-6.08,1.402-9.153,1.887c-1.5,0.237-3.087-0.055-4.633-0.133c-2.908-0.147-5.815-0.307-8.722-0.487
		c-0.29-0.018-0.679-0.138-0.835-0.349c-0.878-1.19-2.028-0.756-3.179-0.691c-1.027,0.058-2.068-0.14-3.059-0.222
		c1.04-1.602,3.119-2.473,4.994-1.906c1.858,0.562,3.544,0.498,5.247-1.116c-1.92-0.66-2.976-2.639-5.547-1.712
		c-1.887,0.68-4.136,0.357-6.224,0.481C48.289,7.845,48.284,7.96,48.278,8.075z"/>
	<path fill-rule="evenodd" clip-rule="evenodd" fill="#FFFFFF" d="M626.966,38.872c1.648,1.505,4.001-0.462,5.114,2.215
		c-0.779,0.114-1.396,0.205-2.011,0.295c-0.044,0.134-0.089,0.267-0.135,0.399c0.721,0.417,1.441,0.833,2.162,1.249
		c-0.02,0.078-0.039,0.156-0.059,0.233c-1.665-0.527-3.33-1.056-5.349-1.695c0.575,2.04,2.285,1.644,3.333,2.244
		c-0.242,0.154-0.532,0.34-0.884,0.564c1.147,0.515,2.175,0.977,3.171,1.423c0,2.366,0,4.647,0,6.93
		c-0.072,0.004-0.144,0.009-0.215,0.014c-0.125-2.124-0.25-4.247-0.375-6.37c-0.249-0.034-0.497-0.067-0.746-0.101
		c0.634,2.589-1.461,2.174-3.174,2.943c4.916-0.057,3.002,3.204,3.241,5.492c-0.499,0.046-1.061,0.099-2.105,0.195
		c1.194,0.891,2.056,1.535,3.033,2.265c-0.539,0.638-0.759,1.921-2.138,0.613c-0.285-0.271-1.218,0.141-1.751,0.223
		c1.456,0.868,2.69,1.563,3.84,2.379c0.079,0.057-0.48,1.013-0.816,1.699c0.262,0.069,0.709,0.188,1.338,0.356
		c0-2.535,0-4.843,0-7.15c0.08,4.41,1.26,8.807-0.124,13.121c0.032,0.019-0.268-0.146-0.974-0.534
		c0.873,1.986,1.585,3.606,2.327,5.296c-0.27,0.022-0.718,0.06-1.28,0.107c0.424,2.023,0.837,4.001,1.249,5.966
		c-0.556,0.81-1.199,1.698-1.774,2.629c-0.114,0.184,0.055,0.526,0.053,0.795c-0.003,0.406-0.041,0.812-0.063,1.218
		c-0.197-0.006-0.395-0.013-0.592-0.019c0.711,0.879,1.422,1.759,2.106,2.605c-0.575,0.396-1.224,0.842-1.873,1.287
		c0.059,0.139,0.116,0.278,0.176,0.417c0.328-0.017,0.657-0.032,1.587-0.077c-1.336,0.911-2.26,1.541-3.312,2.258
		c0.704,0.355,1.355,0.685,2.357,1.19c-0.575,0.439-1.038,0.748-1.443,1.118c-0.298,0.273-0.521,0.628-0.778,0.946
		c0.385,0.086,0.796,0.115,1.146,0.275c0.307,0.14,0.546,0.428,0.949,0.762c-0.659,0.32-1.146,0.556-1.628,0.79
		c0.053,0.196,0.048,0.345,0.119,0.42c0.576,0.6,0.979,1.095,0.941,2.139c-0.056,1.516,0.564,3.045,0.757,4.585
		c0.078,0.625-0.277,1.291-0.316,1.945c-0.057,0.909,0.009,1.825,0.003,2.738c-0.002,0.345-0.005,0.702-0.096,1.03
		c-0.22,0.805-0.785,1.635-0.685,2.383c0.232,1.72-0.627,2.277-2.048,2.473c-0.838,0.116-1.685,0.177-2.89,0.299
		c0.127-2.832,0.244-5.477,0.366-8.12c0.011-0.231-0.73-1.816-0.721-2.401c0.02-1.052,0.702-2.168,0.501-3.131
		c-0.311-1.484,0.299-1.961,1.097-2.07c-0.364-1.54-0.706-2.989-1.049-4.439c0.197-0.081,0.396-0.162,0.593-0.242
		c-0.464-0.202-0.928-0.403-1.436-0.623c0.052-0.16,0.056-0.387,0.172-0.497c0.838-0.799,1.413-1.417,0.218-2.573
		c-1.097-1.061,1.104-5.577,2.737-6.023c-0.619-0.124-1.265-0.177-1.851-0.392c-0.597-0.219-1.135-0.597-1.558-0.829
		c0.523-2.477,1.717-4.688,0.838-7.304c-0.307-0.915,0.455-2.155,0.25-3.148c-0.288-1.396,0.087-2.982-1.054-4.237
		c-0.144-0.158,0.558-1.401,1.112-1.806c0.887-0.646,1.078-0.938,1.031-2.294c-0.057-1.64-1.499-3.138-0.596-4.868
		c0.082-0.158-0.776-0.807-1.483-1.513c2.176-4.665,1.633-9.828-0.247-14.853c0.408-0.693,0.76-1.289,1.105-1.876
		c-2.739-1.961-2.505-1.877-1.375-5.03c0.566-1.582,0.099-3.536,0.099-5.322c-0.177-0.028-0.354-0.058-0.532-0.086
		c0.437-0.27,0.955-0.464,1.282-0.831c0.263-0.294,0.29-0.796,0.423-1.206c-1.484-0.282-0.859-1.354-0.821-2.358
		c1.22,0.969,1.175,3.46,3.65,2.653c0.055,0.776,0.1,1.406,0.123,1.742c-1.068-0.06-2.091-0.117-3.114-0.175
		c-0.034,0.206-0.068,0.411-0.103,0.617c0.488,0.392,0.977,0.783,1.469,1.179c-0.23,0.259-0.446,0.501-0.739,0.832
		c1.012,0.564,1.898,1.059,2.974,1.659c-0.4,0.78-0.783,1.527-1.143,2.229c0.889,0.512,1.834,1.056,2.825,1.627
		C629.664,38.182,628.315,38.526,626.966,38.872z"/>
	<path fill-rule="evenodd" clip-rule="evenodd" fill="#FFFFFF" d="M534.736,6.055c-2.357-0.394-4.715-0.787-7.151-1.194
		c1.446-0.33,2.795-0.65,4.149-0.942c1.103-0.236,4.641,1.893,4.998,2.985c0.387,1.178-1.16,2.126-2.797,2.069
		c-3.25-0.112-6.508,0-9.761,0.011c-2.357,0.008-4.715,0.001-7.223-0.224c1.877-0.456,3.859-0.668,5.609-1.42
		c3.381-1.452,6.767,0.188,10.115-0.346c0.669-0.106,1.342-0.187,2.013-0.279C534.705,6.495,534.72,6.274,534.736,6.055z"/>
	<path fill-rule="evenodd" clip-rule="evenodd" fill="#FFFFFF" d="M14.893,83.909c-0.369,3.33-0.738,6.66-1.153,10.405
		C11.415,90.226,13.766,87.145,14.893,83.909z"/>
	<path fill-rule="evenodd" clip-rule="evenodd" fill="#FFFFFF" d="M549.533,5.155c2.323-0.815,4.646-1.631,6.969-2.446
		c0.056,0.18,0.112,0.36,0.169,0.54c-0.562,0.085-1.122,0.17-1.936,0.293c0.563,0.183,0.903,0.293,1.276,0.414
		c-0.51,0.264-0.994,0.514-1.638,0.846c0.493,0.144,0.826,0.24,1.159,0.337c-0.002,0.112-0.002,0.225-0.003,0.337
		c-1.956,0-3.911,0-5.866,0C549.62,5.369,549.577,5.262,549.533,5.155z"/>
	<path fill-rule="evenodd" clip-rule="evenodd" fill="#FFFFFF" d="M235.828,14.087c2.848,0,5.458,0,8.068,0
		C236.875,15.496,236.875,15.496,235.828,14.087z"/>
	<path fill-rule="evenodd" clip-rule="evenodd" fill="#FFFFFF" d="M178.726,13.241c-1.896,0.136-3.675,0.263-5.952,0.426
		c1.604-1.057,2.811-1.852,3.456-2.277C177.208,12.115,177.958,12.672,178.726,13.241z"/>
	<path fill-rule="evenodd" clip-rule="evenodd" fill="#FFFFFF" d="M409.424,10.813c-2.682,0.185-5.363,0.368-8.044,0.553
		c-0.015-0.28-0.029-0.562-0.043-0.842c2.699,0,5.398,0,8.099,0C409.432,10.621,409.428,10.717,409.424,10.813z"/>
	<path fill-rule="evenodd" clip-rule="evenodd" fill="#FFFFFF" d="M533.511,2.36c2.384,0.191,4.768,0.382,7.151,0.573
		c-0.01,0.066-0.019,0.132-0.027,0.198c-2.41,0-4.821,0-7.231,0C533.44,2.875,533.476,2.617,533.511,2.36z"/>
	<path fill-rule="evenodd" clip-rule="evenodd" fill="#FFFFFF" d="M572.542,1.169c-2.199-0.234-3.987-0.425-5.774-0.615
		C568.574,0.748,570.511-1.163,572.542,1.169z"/>
	<path fill-rule="evenodd" clip-rule="evenodd" fill="#FFFFFF" d="M509.591,6.013c-1.807,0-3.613,0-5.42,0
		c-0.008-0.071-0.016-0.144-0.023-0.215c1.805-0.161,3.609-0.321,5.414-0.481C509.572,5.548,509.582,5.78,509.591,6.013z"/>
</g>
</svg>
